<?xml version="1.0" encoding="UTF-8" standalone="no"?><svg xmlns="http://www.w3.org/2000/svg" xmlns:xlink="http://www.w3.org/1999/xlink" contentStyleType="text/css" height="335px" preserveAspectRatio="none" style="width:367px;height:335px;background:#FFFFFF;" version="1.1" viewBox="0 0 367 335" width="367px" zoomAndPan="magnify"><defs/><g><!--MD5=[4e13963c9dc916a21a8436ef39422b32]
class Component--><g id="elem_Component"><rect codeLine="4" fill="#FFFFFF" height="125.4844" id="Component" rx="2.5" ry="2.5" style="stroke:#000000;stroke-width:1.0;" width="271" x="23.5" y="12"/><ellipse cx="113.75" cy="26" fill="#FFFFFF" rx="9" ry="9" style="stroke:#000000;stroke-width:1.0;"/><path d="M115.8281,27.8125 L116.2188,28.7969 L115.8281,28.7969 C115.375,28.7969 115.2656,28.8125 115.1094,28.9219 C114.8594,29.0781 114.7031,29.3594 114.7031,29.6563 C114.7031,29.9219 114.8438,30.1719 115.0625,30.3281 C115.2031,30.4531 115.4063,30.5 115.8281,30.5 L118.1875,30.5 C118.5469,30.5 118.7656,30.4688 118.9063,30.375 C119.1563,30.2344 119.3125,29.9375 119.3125,29.6563 C119.3125,29.375 119.1719,29.125 118.9531,28.9688 C118.7813,28.8281 118.625,28.7969 118.1563,28.7969 L114.7656,20.5938 L111.0938,20.5938 C110.6406,20.5938 110.5156,20.6094 110.3594,20.7031 C110.1094,20.875 109.9531,21.1563 109.9531,21.4375 C109.9531,21.7188 110.0938,21.9688 110.3125,22.1406 C110.4844,22.25 110.6563,22.2813 111.0938,22.2813 L112.1719,22.2813 L109.5313,28.7969 C109.1094,28.7969 108.9531,28.8125 108.7969,28.9219 C108.5469,29.0781 108.3906,29.3594 108.3906,29.6563 C108.3906,30.2188 108.7656,30.5 109.5156,30.5 L111.7813,30.5 C112.1406,30.5 112.3594,30.4688 112.4844,30.375 C112.75,30.2344 112.8906,29.9375 112.8906,29.6563 C112.8906,29.375 112.7656,29.125 112.5469,28.9531 C112.375,28.8281 112.2344,28.7969 111.7813,28.7969 L111.3906,28.7969 L111.7813,27.8125 L115.8281,27.8125 Z M115.125,26.1094 L112.4531,26.1094 L113.7969,22.8438 L115.125,26.1094 Z " fill="#000000"/><text fill="#000000" font-family="Verdana" font-size="14" font-style="italic" lengthAdjust="spacing" textLength="83" x="131.25" y="30.8467">Component</text><line style="stroke:#000000;stroke-width:1.0;" x1="24.5" x2="293.5" y1="40" y2="40"/><polygon fill="none" points="34.5,46,38.5,50,34.5,54,30.5,50" style="stroke:#000000;stroke-width:1.0;"/><text fill="#000000" font-family="Verdana" font-size="14" lengthAdjust="spacing" textLength="97" x="41.5" y="56.9951">name : String</text><polygon fill="none" points="34.5,62.2969,38.5,66.2969,34.5,70.2969,30.5,66.2969" style="stroke:#000000;stroke-width:1.0;"/><text fill="#000000" font-family="Verdana" font-size="14" lengthAdjust="spacing" textLength="103" x="41.5" y="73.292">price : Integer</text><line style="stroke:#000000;stroke-width:1.0;" x1="24.5" x2="293.5" y1="80.5938" y2="80.5938"/><ellipse cx="34.5" cy="91.5938" fill="#FFFFFF" rx="3" ry="3" style="stroke:#000000;stroke-width:1.0;"/><text fill="#000000" font-family="Verdana" font-size="14" font-style="italic" lengthAdjust="spacing" textLength="236" x="41.5" y="97.5889">contains(Component c) : boolean</text><ellipse cx="34.5" cy="107.8906" fill="#FFFFFF" rx="3" ry="3" style="stroke:#000000;stroke-width:1.0;"/><text fill="#000000" font-family="Verdana" font-size="14" font-style="italic" lengthAdjust="spacing" textLength="181" x="41.5" y="113.8857">fetchTotalPrice() : Integer</text><ellipse cx="34.5" cy="124.1875" fill="#FFFFFF" rx="3" ry="3" style="stroke:#000000;stroke-width:1.0;"/><text fill="#000000" font-family="Verdana" font-size="14" font-style="italic" lengthAdjust="spacing" textLength="247" x="41.5" y="130.1826">fetchMaterialList() : List&lt;Material&gt;</text></g><!--MD5=[90d32ccc189f11441a6ce7cbb63ad387]
class Material--><g id="elem_Material"><rect codeLine="11" fill="#FFFFFF" height="28" id="Material" rx="2.5" ry="2.5" style="stroke:#000000;stroke-width:1.0;" width="86" x="12" y="288"/><ellipse cx="25" cy="302" fill="#FFFFFF" rx="9" ry="9" style="stroke:#000000;stroke-width:1.0;"/><path d="M27.3438,297.6719 C26.4063,297.2344 25.8125,297.0938 24.9375,297.0938 C22.3125,297.0938 20.3125,299.1719 20.3125,301.8906 L20.3125,303.0156 C20.3125,305.5938 22.4219,307.4844 25.3125,307.4844 C26.5313,307.4844 27.6875,307.1875 28.4375,306.6406 C29.0156,306.2344 29.3438,305.7813 29.3438,305.3906 C29.3438,304.9375 28.9531,304.5469 28.4844,304.5469 C28.2656,304.5469 28.0625,304.625 27.875,304.8125 C27.4219,305.2969 27.4219,305.2969 27.2344,305.3906 C26.8125,305.6563 26.125,305.7813 25.3594,305.7813 C23.3125,305.7813 22.0156,304.6875 22.0156,302.9844 L22.0156,301.8906 C22.0156,300.1094 23.2656,298.7969 25,298.7969 C25.5781,298.7969 26.1875,298.9531 26.6563,299.2031 C27.1406,299.4844 27.3125,299.7031 27.4063,300.1094 C27.4688,300.5156 27.5,300.6406 27.6406,300.7656 C27.7813,300.9063 28.0156,301.0156 28.2344,301.0156 C28.5,301.0156 28.7656,300.875 28.9375,300.6563 C29.0469,300.5 29.0781,300.3125 29.0781,299.8906 L29.0781,298.4688 C29.0781,298.0313 29.0625,297.9063 28.9688,297.75 C28.8125,297.4844 28.5313,297.3438 28.2344,297.3438 C27.9375,297.3438 27.7344,297.4375 27.5156,297.75 L27.3438,297.6719 Z " fill="#000000"/><text fill="#000000" font-family="Verdana" font-size="14" lengthAdjust="spacing" textLength="58" x="37" y="306.8467">Material</text></g><!--MD5=[72136138052d025cffdce3c22fbd185f]
class Product--><g id="elem_Product"><rect codeLine="12" fill="#FFFFFF" height="52.2969" id="Product" rx="2.5" ry="2.5" style="stroke:#000000;stroke-width:1.0;" width="227" x="133.5" y="276"/><ellipse cx="215.25" cy="290" fill="#FFFFFF" rx="9" ry="9" style="stroke:#000000;stroke-width:1.0;"/><path d="M217.5938,285.6719 C216.6563,285.2344 216.0625,285.0938 215.1875,285.0938 C212.5625,285.0938 210.5625,287.1719 210.5625,289.8906 L210.5625,291.0156 C210.5625,293.5938 212.6719,295.4844 215.5625,295.4844 C216.7813,295.4844 217.9375,295.1875 218.6875,294.6406 C219.2656,294.2344 219.5938,293.7813 219.5938,293.3906 C219.5938,292.9375 219.2031,292.5469 218.7344,292.5469 C218.5156,292.5469 218.3125,292.625 218.125,292.8125 C217.6719,293.2969 217.6719,293.2969 217.4844,293.3906 C217.0625,293.6563 216.375,293.7813 215.6094,293.7813 C213.5625,293.7813 212.2656,292.6875 212.2656,290.9844 L212.2656,289.8906 C212.2656,288.1094 213.5156,286.7969 215.25,286.7969 C215.8281,286.7969 216.4375,286.9531 216.9063,287.2031 C217.3906,287.4844 217.5625,287.7031 217.6563,288.1094 C217.7188,288.5156 217.75,288.6406 217.8906,288.7656 C218.0313,288.9063 218.2656,289.0156 218.4844,289.0156 C218.75,289.0156 219.0156,288.875 219.1875,288.6563 C219.2969,288.5 219.3281,288.3125 219.3281,287.8906 L219.3281,286.4688 C219.3281,286.0313 219.3125,285.9063 219.2188,285.75 C219.0625,285.4844 218.7813,285.3438 218.4844,285.3438 C218.1875,285.3438 217.9844,285.4375 217.7656,285.75 L217.5938,285.6719 Z " fill="#000000"/><text fill="#000000" font-family="Verdana" font-size="14" lengthAdjust="spacing" textLength="56" x="232.75" y="294.8467">Product</text><line style="stroke:#000000;stroke-width:1.0;" x1="134.5" x2="359.5" y1="304" y2="304"/><ellipse cx="144.5" cy="315" fill="#FFFFFF" rx="3" ry="3" style="stroke:#000000;stroke-width:1.0;"/><text fill="#000000" font-family="Verdana" font-size="14" lengthAdjust="spacing" textLength="203" x="151.5" y="320.9951">addPart(Component c): void</text></g><!--MD5=[fcb1ae89ca029054dd86af4531f102e9]
reverse link Component to Material--><g id="link_Component_Material"><path codeLine="16" d="M122.161,155.376 C99.5518,204.4 72.7515,262.5099 61.0125,287.9634 " fill="none" id="Component-backto-Material" style="stroke:#000000;stroke-width:1.0;"/><polygon fill="none" points="115.849,152.349,130.582,137.119,128.562,158.212,115.849,152.349" style="stroke:#000000;stroke-width:1.0;"/></g><!--MD5=[7e87e0a90552a885e11a36b269d35228]
reverse link Component to Product--><g id="link_Component_Product"><path codeLine="17" d="M182.864,156.592 C189.185,175.936 196.389,196.369 204,215 C212.586,236.0161 224.185,258.9741 233.173,275.8794 " fill="none" id="Component-backto-Product" style="stroke:#000000;stroke-width:1.0;"/><polygon fill="none" points="176.131,158.517,176.736,137.336,189.472,154.271,176.131,158.517" style="stroke:#000000;stroke-width:1.0;"/></g><!--MD5=[c191050d126d3435d640e435f2fb0b72]
link Product to Component--><g id="link_Product_Component"><path codeLine="19" d="M240.522,263.838 C240.522,263.838 225.828,198.134 213,167 C210.495,160.92 207.641,154.76 204.583,148.658 " fill="none" id="Product-Component" style="stroke:#000000;stroke-width:1.0;"/><polygon fill="#000000" points="198.489,137.035,199.1252,146.8633,200.8106,141.4633,206.2105,143.1487,198.489,137.035" style="stroke:#000000;stroke-width:1.0;"/><line style="stroke:#000000;stroke-width:1.0;" x1="200.8106" x2="204.5255" y1="141.4633" y2="148.5485"/><polygon fill="none" points="242.793,275.6211,245.5852,268.9725,240.522,263.838,237.7298,270.4865,242.793,275.6211" style="stroke:#000000;stroke-width:1.0;"/><text fill="#000000" font-family="Verdana" font-size="13" lengthAdjust="spacing" textLength="33" x="231" y="211.0669">parts</text><text fill="#000000" font-family="Verdana" font-size="13" lengthAdjust="spacing" textLength="7" x="195.8752" y="157.616">*</text></g><!--MD5=[07eee54c0c9686b23b1401d245bd128b]
@startuml
!theme plain
hide empty members

abstract class Component {
    # name : String
    # price : Integer
    {abstract} + contains(Component c) : boolean
    {abstract} + fetchTotalPrice() : Integer
    {abstract} + fetchMaterialList() : List<Material>
}
class Material {}
class Product {
    + addPart(Component c): void
}

Material - -up-|> Component
Product - -up-|> Component

Product o- -> "*" Component : parts
@enduml

@startuml







<style>
  root {
    BackgroundColor white
    FontColor black
    FontName Verdana
    HyperLinkColor blue
    LineColor black
    LineThickness 1
    Margin 5
  }
  caption {
    LineThickness 0
  }
  footer {
    LineThickness 0
  }
  header {
    LineThickness 0
  }
  node {
    MaximumWidth 300
  }
  title {
    FontSize 22
    LineThickness 0
  }
</style>

skinparam ArrowLollipopColor black
skinparam BackgroundColor white
skinparam DefaultFontName Verdana
skinparam DefaultMonospacedFontName Courier
skinparam LifelineStrategy nosolid
skinparam ParticipantPadding 10
skinparam SequenceLifeLineBorderColor black
skinparam Shadowing false
skinparam UseBetaStyle true

skinparam Activity {
  BackgroundColor white
  BarColor black
  BorderColor black
  FontColor black
  FontName Verdana
}
skinparam Boundary {
  FontColor black
}
skinparam Box {
  Padding 5
}
skinparam CircledCharacter {
  FontColor black
  FontName Courier
  Radius 9
}
skinparam Class {
  BackgroundColor white
  BorderColor black
  FontColor black
  FontName Verdana
}
skinparam ClassAttribute {
  FontColor black
  FontName Verdana
}
skinparam ClassStereotype {
  FontColor black
  FontName Verdana
}
skinparam Footer {
  FontColor black
  FontName Verdana
}
skinparam Header {
  FontColor black
  FontName Verdana
}
skinparam Hyperlink {
  Color blue
}
skinparam IconPackage {
  Color black
  BackgroundColor white
}
skinparam IconPrivate {
  Color black
  BackgroundColor white
}
skinparam IconProtected {
  Color black
  BackgroundColor white
}
skinparam IconPublic {
  Color black
  BackgroundColor white
}
skinparam Note {
  FontColor black
  FontName Verdana
}
skinparam Object {
  BorderColor black
}
skinparam Package {
  BorderColor black
  FontColor black
  FontName Verdana
}
skinparam State {
  BackgroundColor white
  BorderColor black
}
skinparam StereotypeA {
  BackgroundColor white
  BorderColor black
}
skinparam StereotypeC {
  BackgroundColor white
  BorderColor black
}
skinparam StereotypeE {
  BackgroundColor white
  BorderColor black
}
skinparam StereotypeI {
  BackgroundColor white
  BorderColor black
}
skinparam StereotypeN {
  BackgroundColor white
  BorderColor black
}
skinparam UseCaseStereoType {
  FontColor black
  FontName Verdana
}
hide empty members

abstract class Component {
    # name : String
    # price : Integer
    {abstract} + contains(Component c) : boolean
    {abstract} + fetchTotalPrice() : Integer
    {abstract} + fetchMaterialList() : List<Material>
}
class Material {}
class Product {
    + addPart(Component c): void
}

Material - -up-|> Component
Product - -up-|> Component

Product o- -> "*" Component : parts
@enduml

PlantUML version 1.2022.7beta2(Unknown compile time)
(GPL source distribution)
Java Runtime: Java(TM) SE Runtime Environment
JVM: Java HotSpot(TM) 64-Bit Server VM
Default Encoding: UTF-8
Language: en
Country: US
--></g></svg>