<?xml version="1.0" encoding="UTF-8" standalone="no"?><svg xmlns="http://www.w3.org/2000/svg" xmlns:xlink="http://www.w3.org/1999/xlink" contentStyleType="text/css" height="202px" preserveAspectRatio="none" style="width:414px;height:202px;background:#FFFFFF;" version="1.1" viewBox="0 0 414 202" width="414px" zoomAndPan="magnify"><defs/><g><!--MD5=[21a7b5e25bf481cff0cfc9595f2b297b]
class ComponentRegister--><g id="elem_ComponentRegister"><rect codeLine="4" fill="#FFFFFF" height="176.7012" id="ComponentRegister" rx="2.5" ry="2.5" style="stroke:#000000;stroke-width:1.0;" width="388" x="12" y="12"/><ellipse cx="132.25" cy="32.7993" fill="#FFFFFF" rx="9" ry="9" style="stroke:#000000;stroke-width:1.0;"/><path d="M130.75,36.7993 Q130.4688,37.4399 130.2813,37.6274 Q130.1094,37.7993 129.8594,37.7993 Q129.3594,37.7993 129.0469,37.5806 Q128.75,37.3462 128.75,36.7993 L128.75,35.7993 Q128.75,35.2524 129,35.0337 Q129.25,34.7993 129.6563,34.7993 Q129.9688,34.7993 130.1875,34.8774 Q130.4063,34.9556 130.5156,35.1431 Q130.625,35.3306 130.75,35.3931 Q130.9063,35.5337 131.3125,35.6743 Q131.7188,35.7993 132.2031,35.7993 Q132.9531,35.7993 133.4375,35.3462 Q133.75,35.0806 133.75,34.6899 Q133.75,34.4243 133.5938,34.1899 Q133.4375,33.9556 133.0938,33.7993 Q132.875,33.6899 132.0938,33.5181 Q130.6406,33.2993 130.125,32.9556 Q129.625,32.6118 129.1875,32.0024 Q128.75,31.3774 128.75,30.6587 Q128.75,29.5181 129.6094,28.6587 Q130.4844,27.7993 131.8594,27.7993 Q132.4219,27.7993 132.7031,28.0493 Q132.9844,28.2993 133.75,28.7993 Q134.1875,27.7993 134.625,27.7993 Q135.125,27.7993 135.4375,28.0181 Q135.75,28.2368 135.75,28.7524 L135.75,29.8306 Q135.75,30.3618 135.5,30.5806 Q135.25,30.7993 134.8594,30.7993 Q134.5313,30.7993 134.2813,30.7056 Q134.0938,30.6431 134,30.4399 Q133.9063,30.2368 133.75,30.1587 Q133.5625,30.0024 133.1875,29.9087 Q132.8125,29.7993 132.3125,29.7993 Q131.5938,29.7993 131.1719,30.1587 Q130.75,30.5181 130.75,30.9087 Q130.75,31.1743 130.8906,31.4243 Q131.0469,31.6587 131.3438,31.7993 Q131.5313,31.8931 132.6094,32.1118 Q133.6875,32.3306 134.2344,32.6274 Q134.7813,32.9087 135.2656,33.5181 Q135.75,34.1274 135.75,34.9868 Q135.75,36.1587 135.0781,36.8618 Q134.1719,37.7993 132.7813,37.7993 Q132.25,37.7993 131.7344,37.5493 Q131.2344,37.2993 130.75,36.7993 Z " fill="#000000"/><text fill="#000000" font-family="Verdana" font-size="12" font-style="italic" lengthAdjust="spacing" textLength="72" x="183.75" y="29.0645">«Singleton»</text><text fill="#000000" font-family="Verdana" font-size="14" lengthAdjust="spacing" textLength="140" x="149.75" y="45.6592">ComponentRegister</text><line style="stroke:#000000;stroke-width:1.0;" x1="13" x2="399" y1="53.5986" y2="53.5986"/><rect fill="none" height="6" style="stroke:#000000;stroke-width:1.0;" width="6" x="20" y="61.5986"/><text fill="#000000" font-family="Verdana" font-size="14" lengthAdjust="spacing" text-decoration="underline" textLength="214" x="30" y="71.6738">instance : ComponentRegister</text><rect fill="none" height="6" style="stroke:#000000;stroke-width:1.0;" width="6" x="20" y="78.6133"/><text fill="#000000" font-family="Verdana" font-size="14" lengthAdjust="spacing" textLength="235" x="30" y="88.6885">materials : Map&lt;String, Material&gt;</text><rect fill="none" height="6" style="stroke:#000000;stroke-width:1.0;" width="6" x="20" y="95.6279"/><text fill="#000000" font-family="Verdana" font-size="14" lengthAdjust="spacing" textLength="236" x="30" y="105.7031">products : Map&lt;String, Product&gt;</text><line style="stroke:#000000;stroke-width:1.0;" x1="13" x2="399" y1="112.6426" y2="112.6426"/><ellipse cx="23" cy="123.6426" fill="#FFFFFF" rx="3" ry="3" style="stroke:#000000;stroke-width:1.0;"/><text fill="#000000" font-family="Verdana" font-size="14" lengthAdjust="spacing" text-decoration="underline" textLength="251" x="30" y="130.7178">getInstance() : ComponentRegister</text><ellipse cx="23" cy="140.6572" fill="#FFFFFF" rx="3" ry="3" style="stroke:#000000;stroke-width:1.0;"/><text fill="#000000" font-family="Verdana" font-size="14" lengthAdjust="spacing" textLength="362" x="30" y="147.7324">createMaterial(String name, Integer price) : Material</text><ellipse cx="23" cy="157.6719" fill="#FFFFFF" rx="3" ry="3" style="stroke:#000000;stroke-width:1.0;"/><text fill="#000000" font-family="Verdana" font-size="14" lengthAdjust="spacing" textLength="364" x="30" y="164.7471">createProduct(String name, Integer price) : Product</text><text fill="#000000" font-family="Verdana" font-size="14" lengthAdjust="spacing" textLength="32" x="30" y="181.7617">... ()</text></g><!--MD5=[ad3658d48861373dae72b36f9aaeef3f]
@startuml
!theme plain
hide empty members

class ComponentRegister <<(S,#FFFFFF) Singleton>> {
    {static} - instance : ComponentRegister
    - materials : Map<String, Material>
    - products : Map<String, Product>
    {static} + getInstance() : ComponentRegister
    + createMaterial(String name, Integer price) : Material
    + createProduct(String name, Integer price) : Product
    ... ()
}
@enduml

@startuml







<style>
  root {
    BackgroundColor white
    FontColor black
    FontName Verdana
    HyperLinkColor blue
    LineColor black
    LineThickness 1
    Margin 5
  }
  caption {
    LineThickness 0
  }
  footer {
    LineThickness 0
  }
  header {
    LineThickness 0
  }
  node {
    MaximumWidth 300
  }
  title {
    FontSize 22
    LineThickness 0
  }
</style>

skinparam ArrowLollipopColor black
skinparam BackgroundColor white
skinparam DefaultFontName Verdana
skinparam DefaultMonospacedFontName Courier
skinparam LifelineStrategy nosolid
skinparam ParticipantPadding 10
skinparam SequenceLifeLineBorderColor black
skinparam Shadowing false
skinparam UseBetaStyle true

skinparam Activity {
  BackgroundColor white
  BarColor black
  BorderColor black
  FontColor black
  FontName Verdana
}
skinparam Boundary {
  FontColor black
}
skinparam Box {
  Padding 5
}
skinparam CircledCharacter {
  FontColor black
  FontName Courier
  Radius 9
}
skinparam Class {
  BackgroundColor white
  BorderColor black
  FontColor black
  FontName Verdana
}
skinparam ClassAttribute {
  FontColor black
  FontName Verdana
}
skinparam ClassStereotype {
  FontColor black
  FontName Verdana
}
skinparam Footer {
  FontColor black
  FontName Verdana
}
skinparam Header {
  FontColor black
  FontName Verdana
}
skinparam Hyperlink {
  Color blue
}
skinparam IconPackage {
  Color black
  BackgroundColor white
}
skinparam IconPrivate {
  Color black
  BackgroundColor white
}
skinparam IconProtected {
  Color black
  BackgroundColor white
}
skinparam IconPublic {
  Color black
  BackgroundColor white
}
skinparam Note {
  FontColor black
  FontName Verdana
}
skinparam Object {
  BorderColor black
}
skinparam Package {
  BorderColor black
  FontColor black
  FontName Verdana
}
skinparam State {
  BackgroundColor white
  BorderColor black
}
skinparam StereotypeA {
  BackgroundColor white
  BorderColor black
}
skinparam StereotypeC {
  BackgroundColor white
  BorderColor black
}
skinparam StereotypeE {
  BackgroundColor white
  BorderColor black
}
skinparam StereotypeI {
  BackgroundColor white
  BorderColor black
}
skinparam StereotypeN {
  BackgroundColor white
  BorderColor black
}
skinparam UseCaseStereoType {
  FontColor black
  FontName Verdana
}
hide empty members

class ComponentRegister <<(S,#FFFFFF) Singleton>> {
    {static} - instance : ComponentRegister
    - materials : Map<String, Material>
    - products : Map<String, Product>
    {static} + getInstance() : ComponentRegister
    + createMaterial(String name, Integer price) : Material
    + createProduct(String name, Integer price) : Product
    ... ()
}
@enduml

PlantUML version 1.2022.6(Tue Jun 21 19:34:49 CEST 2022)
(GPL source distribution)
Java Runtime: OpenJDK Runtime Environment
JVM: OpenJDK 64-Bit Server VM
Default Encoding: Cp1252
Language: de
Country: DE
--></g></svg>